<svg data-v-423bf9ae="" xmlns="http://www.w3.org/2000/svg" viewBox="0 0 505.0809546897562 60" class="font"><!----><!----><!----><g data-v-423bf9ae="" id="1faac3b6-6692-4ce0-b2c7-39e6a2f7daff" fill="white" transform="matrix(6.072874423584482,0,0,6.072874423584482,-0.6680202008119807,-17.793523181766375)"><path d="M1.47 3.62L0.11 4.61L0.21 4.81Q0.57 4.79 0.62 5.77L0.62 5.77L0.62 11.20Q0.63 12.36 1.24 12.71L1.24 12.71L2.49 11.82Q3.03 11.44 3.50 12.03Q3.98 12.63 4.57 12.73L4.57 12.73L5.92 11.68L5.79 11.46Q5.46 11.46 5.31 11.28Q5.17 11.10 4.78 10.65Q4.40 10.21 3.73 10.29L3.73 10.29L2.37 11.44Q2.24 11.01 2.25 10.62L2.25 10.62L2.24 5.13Q2.16 3.93 1.47 3.62L1.47 3.62ZM7.33 3.68L5.97 4.86Q6.60 5.30 6.93 5.91L6.93 5.91Q8.08 5.15 8.22 4.96Q8.36 4.76 8.15 4.31Q7.94 3.86 7.33 3.68L7.33 3.68ZM6.18 7.76Q6.76 7.43 6.56 9.23L6.56 9.23Q6.53 11.37 6.58 11.88Q6.62 12.39 7.18 12.72L7.18 12.72L8.54 11.45L8.55 11.27Q8.18 11.29 8.09 10.76Q8.00 10.23 8.04 8.94Q8.08 7.65 8.06 7.25Q8.05 6.85 7.69 6.45L7.69 6.45L6.07 7.57L6.18 7.76ZM11.14 3.70L9.90 4.68Q10.30 4.64 10.12 6.90L10.12 6.90L9.68 6.91L8.70 8.26L8.91 8.45Q9.23 8.09 10.08 8.13L10.08 8.13Q9.96 11.08 10.09 11.67Q10.21 12.25 10.89 12.72L10.89 12.72Q11.83 12.24 13.14 11.16L13.14 11.16L13.02 10.63Q11.55 11.38 11.46 10.75Q11.38 10.13 11.44 8.13L11.44 8.13L12.30 8.13L13.19 7.02L13.14 6.88L11.47 6.86L11.55 4.57Q11.47 3.98 11.14 3.70L11.14 3.70ZM15.72 3.70L14.47 4.68Q14.88 4.64 14.70 6.90L14.70 6.90L14.25 6.91L13.27 8.26L13.48 8.45Q13.80 8.09 14.66 8.13L14.66 8.13Q14.53 11.08 14.66 11.67Q14.79 12.25 15.46 12.72L15.46 12.72Q16.40 12.24 17.71 11.16L17.71 11.16L17.59 10.63Q16.12 11.38 16.03 10.75Q15.95 10.13 16.02 8.13L16.02 8.13L16.87 8.13L17.77 7.02L17.71 6.88L16.04 6.86L16.12 4.57Q16.04 3.98 15.72 3.70L15.72 3.70ZM19.28 3.24L18.11 4.21Q18.28 4.54 18.31 5.11L18.31 5.11Q18.24 11.51 18.35 12.01Q18.46 12.50 18.99 12.81L18.99 12.81L20.74 11.55L20.54 11.33Q20.08 11.43 19.85 11.03Q19.63 10.62 19.71 4.07L19.71 4.07Q19.62 3.51 19.28 3.24L19.28 3.24ZM24.13 6.60Q23.06 6.43 22.13 7.26Q21.21 8.09 20.95 9.20Q20.69 10.31 21.11 11.26Q21.53 12.22 22.67 12.62L22.67 12.62Q23.60 12.93 24.60 12.18Q25.61 11.43 25.92 10.77L25.92 10.77L25.72 10.61Q24.34 11.56 23.52 11.24Q22.70 10.92 22.56 10.51L22.56 10.51L24.04 9.54Q25.48 8.65 25.34 7.70Q25.20 6.76 24.13 6.60ZM22.04 8.64Q22.03 8.14 22.40 7.78Q22.77 7.41 23.38 7.78Q23.99 8.15 23.89 8.76Q23.80 9.37 22.35 10.14L22.35 10.14Q22.20 9.80 22.13 9.47Q22.06 9.14 22.04 8.64ZM29.69 3.61L28.74 5.03L28.88 5.14Q29.24 4.83 31.75 4.96L31.75 4.96Q31.40 5.34 31.12 5.67L31.12 5.67L31.14 11.51Q31.39 12.56 32.25 12.74L32.25 12.74L33.40 11.70L33.30 11.46Q32.77 11.48 32.66 10.42L32.66 10.42L32.68 4.94L34.11 4.94L35.32 3.75L35.20 3.61L29.69 3.61ZM37.53 6.49Q36.38 7.24 35.91 7.80Q35.43 8.35 35.24 8.92Q35.05 9.48 35.17 10.33Q35.30 11.18 36.17 11.96Q37.04 12.75 37.56 12.75Q38.08 12.76 39.19 11.74L39.19 11.74Q39.62 11.35 39.95 10.91Q40.27 10.47 40.42 9.67Q40.58 8.87 40.16 7.90L40.16 7.90Q39.13 6.30 37.53 6.49L37.53 6.49ZM37.30 7.70Q38.17 7.83 38.68 8.81Q39.18 9.79 39.02 10.78Q38.85 11.76 37.97 11.29Q37.08 10.81 36.64 10.00Q36.20 9.19 36.32 8.37Q36.44 7.56 37.30 7.70ZM46.76 7.64L46.76 7.64L46.89 7.79Q47.69 7.17 48.35 8.09Q49.01 9.02 48.97 9.97Q48.93 10.92 48.33 11.48L48.33 11.48Q47.75 11.55 45.47 6.83L45.47 6.83Q45.32 6.42 44.93 6.67L44.93 6.67L43.61 7.97L43.67 8.09Q44.06 7.77 44.45 8.44L44.45 8.44L45.83 11.01L45.32 11.41Q45.11 11.79 42.53 6.82L42.53 6.82Q42.38 6.41 41.99 6.66L41.99 6.66L40.67 7.96L40.73 8.08Q41.12 7.77 41.51 8.43L41.51 8.43L43.56 12.28Q44.15 13.04 44.74 12.59Q45.33 12.14 46.03 11.39L46.03 11.39L46.50 12.29Q47.09 13.05 47.68 12.60Q48.27 12.15 48.77 11.56Q49.27 10.98 49.94 9.89Q50.61 8.80 50.05 7.68Q49.50 6.57 48.68 6.29Q47.87 6.01 46.76 7.64ZM52.31 6.42L50.63 7.64L50.79 7.87Q51.30 7.56 51.24 8.50L51.24 8.50Q51.17 11.46 51.26 11.91Q51.35 12.37 51.93 12.71L51.93 12.71L53.38 11.46L53.38 11.29Q52.92 11.40 52.79 10.78Q52.67 10.17 52.75 8.27L52.75 8.27Q53.62 7.48 54.23 7.71Q54.83 7.94 54.82 9.37L54.82 9.37Q54.79 11.42 54.84 11.91Q54.89 12.40 55.43 12.76L55.43 12.76L56.85 11.49L56.81 11.33Q56.46 11.44 56.34 10.81Q56.23 10.18 56.29 8.74L56.29 8.74Q56.34 7.86 56.15 7.33Q55.96 6.80 55.34 6.56Q54.71 6.31 54.18 6.57Q53.65 6.83 53.30 7.12Q52.96 7.40 52.77 7.62L52.77 7.62Q52.83 6.77 52.31 6.42L52.31 6.42ZM60.92 3.62L59.56 4.61L59.66 4.81Q60.03 4.79 60.07 5.77L60.07 5.77L60.07 11.20Q60.08 12.36 60.70 12.71L60.70 12.71L61.94 11.82Q62.48 11.44 62.96 12.03Q63.43 12.63 64.03 12.73L64.03 12.73L65.37 11.68L65.24 11.46Q64.91 11.46 64.76 11.28Q64.62 11.10 64.23 10.65Q63.85 10.21 63.18 10.29L63.18 10.29L61.82 11.44Q61.69 11.01 61.70 10.62L61.70 10.62L61.69 5.13Q61.61 3.93 60.92 3.62L60.92 3.62ZM68.62 6.49Q67.61 6.45 66.55 7.15Q65.48 7.85 66.10 9.02L66.10 9.02L67.62 8.13Q66.94 7.09 68.21 7.06Q69.47 7.03 69.31 8.76L69.31 8.76L67.10 8.80L65.40 10.71Q65.33 11.55 66.00 12.14Q66.66 12.73 67.32 12.70Q67.98 12.67 68.44 12.39Q68.91 12.10 69.36 11.57L69.36 11.57Q69.52 12.52 70.47 12.69L70.47 12.69L71.68 11.38L71.60 11.21Q71.05 11.33 70.90 10.58L70.90 10.58L70.90 8.16Q70.83 7.23 70.23 6.88Q69.62 6.53 68.62 6.49ZM66.79 9.88L69.30 9.88L69.30 11.11Q69.06 11.42 68.16 11.39Q67.27 11.35 66.54 10.12L66.54 10.12L66.79 9.88ZM73.40 2.93L71.98 3.90Q72.32 4.09 72.26 6.92Q72.21 9.76 72.30 10.51Q72.39 11.25 73.51 12.14Q74.63 13.02 75.44 12.50Q76.26 11.98 76.92 11.29Q77.59 10.60 77.76 9.51Q77.92 8.43 77.53 7.57Q77.14 6.71 75.99 6.51Q74.85 6.31 73.85 7.53L73.85 7.53Q73.92 3.88 73.73 3.42Q73.53 2.97 73.40 2.93L73.40 2.93ZM74.62 7.73Q75.15 7.65 75.64 8.03Q76.13 8.40 76.22 9.37Q76.30 10.34 75.82 11.52L75.82 11.52Q74.72 11.94 74.21 11.26Q73.69 10.58 73.89 8.12L73.89 8.12Q74.09 7.81 74.62 7.73ZM81.11 6.52Q80.40 6.63 79.95 6.92Q79.50 7.21 79.18 7.52Q78.86 7.84 78.70 8.41Q78.53 8.98 78.99 9.39Q79.44 9.80 80.49 10.02Q81.55 10.24 81.89 10.55Q82.24 10.87 82.27 11.14Q82.30 11.42 82.05 11.52Q81.80 11.61 81.29 11.54Q80.79 11.46 80.32 11.22Q79.85 10.99 79.52 10.65Q79.19 10.32 79.47 10.02L79.47 10.02L79.31 9.93L78.25 10.84Q78.13 11.20 78.53 11.67Q78.93 12.14 79.54 12.40Q80.16 12.66 80.80 12.70Q81.44 12.74 82.09 12.32Q82.73 11.90 83.03 11.35Q83.33 10.81 83.27 10.26Q83.21 9.71 82.85 9.30Q82.49 8.88 81.31 8.55Q80.13 8.22 79.94 7.84Q79.75 7.45 80.24 7.38Q80.72 7.31 81.38 7.63Q82.04 7.96 81.82 8.25L81.82 8.25L81.91 8.35L82.93 7.38Q82.82 6.92 82.32 6.67Q81.82 6.41 81.11 6.52Z"></path></g><!----><!----></svg>